<?xml version="1.0" encoding="UTF-8" standalone="no"?>
<!-- Generator: Adobe Illustrator 19.1.0, SVG Export Plug-In . SVG Version: 6.00 Build 0)  -->

<svg
   xmlns:dc="http://purl.org/dc/elements/1.1/"
   xmlns:cc="http://creativecommons.org/ns#"
   xmlns:rdf="http://www.w3.org/1999/02/22-rdf-syntax-ns#"
   xmlns:svg="http://www.w3.org/2000/svg"
   xmlns="http://www.w3.org/2000/svg"
   xmlns:sodipodi="http://sodipodi.sourceforge.net/DTD/sodipodi-0.dtd"
   xmlns:inkscape="http://www.inkscape.org/namespaces/inkscape"
   version="1.1"
   id="Layer_1"
   x="0px"
   y="0px"
   viewBox="0 0 640 192"
   xml:space="preserve"
   sodipodi:docname="logo.svg"
   inkscape:version="0.92.3 (2405546, 2018-03-11)"
   width="640"
   height="192"><metadata
   id="metadata115"><rdf:RDF><cc:Work
       rdf:about=""><dc:format>image/svg+xml</dc:format><dc:type
         rdf:resource="http://purl.org/dc/dcmitype/StillImage" /><dc:title></dc:title></cc:Work></rdf:RDF></metadata><defs
   id="defs113">
	
	
	
	
	
	
	

	

		
		
		
		
		
		
		
		
		
		
	
			
			
		
			
			
		
			
			
		
			
			
		
			
			
		
			
			
		
			
			
		
			
			
		
			
			
		
			
			
		</defs><sodipodi:namedview
   pagecolor="#ffffff"
   bordercolor="#666666"
   borderopacity="1"
   objecttolerance="10"
   gridtolerance="10"
   guidetolerance="10"
   inkscape:pageopacity="0"
   inkscape:pageshadow="2"
   inkscape:window-width="1920"
   inkscape:window-height="986"
   id="namedview111"
   showgrid="false"
   inkscape:zoom="1.4436763"
   inkscape:cx="300.25279"
   inkscape:cy="77.69856"
   inkscape:window-x="-11"
   inkscape:window-y="-11"
   inkscape:window-maximized="1"
   inkscape:current-layer="Layer_1"
   inkscape:snap-text-baseline="true"
   inkscape:measure-start="0,182.866"
   inkscape:measure-end="768.87,182.174" />
<style
   type="text/css"
   id="style2">
	.st0{fill:#800080;}
	.st1{fill:none;stroke:#1A1818;stroke-miterlimit:10;}
	.st2{fill:#C000C0;}
	.st3{fill:#FFFFFF;stroke:#1A1818;stroke-miterlimit:10;}
</style>




<path
   style="fill:#008060;fill-opacity:1;stroke:#006048;stroke-width:0.99999994;stroke-linecap:round;stroke-linejoin:round;stroke-miterlimit:4;stroke-dasharray:none;stroke-opacity:1"
   d="m 314.59995,14.5 5,0.999836 -12,59.000168 h -5 z"
   id="path4799"
   inkscape:connector-curvature="0"
   sodipodi:nodetypes="ccccc" /><path
   style="fill:#008060;fill-opacity:1;stroke:#006048;stroke-width:0.99999994;stroke-linecap:round;stroke-linejoin:round;stroke-miterlimit:4;stroke-dasharray:none;stroke-opacity:1"
   d="m 325.5998,15.499836 5.00015,-0.999987 12,60.000005 h -5.00015 z"
   id="path4801"
   inkscape:connector-curvature="0"
   sodipodi:nodetypes="ccccc" /><path
   style="fill:#008060;fill-opacity:1;stroke:#006048;stroke-width:0.99999994;stroke-linecap:round;stroke-linejoin:round;stroke-miterlimit:4;stroke-dasharray:none;stroke-opacity:1"
   d="m 294.59995,114.49983 h 4.99999 l -12,58.99997 -4.99999,1.00003 z"
   id="path4803"
   inkscape:connector-curvature="0"
   sodipodi:nodetypes="ccccc" /><path
   style="fill:#008060;fill-opacity:1;stroke:#006048;stroke-width:0.99999994;stroke-linecap:round;stroke-linejoin:round;stroke-miterlimit:4;stroke-dasharray:none;stroke-opacity:1"
   d="m 345.59976,114.49983 h 5.00019 l 12.00002,60 -5.0002,-1.00003 z"
   id="path4805"
   inkscape:connector-curvature="0"
   sodipodi:nodetypes="ccccc" /><path
   style="fill:#00c090;fill-opacity:1;stroke:#006048;stroke-width:1;stroke-linecap:round;stroke-linejoin:round;stroke-miterlimit:4;stroke-dasharray:none;stroke-opacity:1"
   d="m 242.59995,174.49984 h 40 l 12,-60 h 56 l 12.00002,60 h 39.99999 L 370.59994,14.49985 h -39.99999 l 12,60 -40,1.5e-4 12,-60 h -40 z"
   id="path881-1"
   inkscape:connector-curvature="0"
   sodipodi:nodetypes="ccccccccccccc" /><flowRoot
   xml:space="preserve"
   id="flowRoot854"
   style="font-style:normal;font-weight:normal;font-size:40px;line-height:1.25;font-family:sans-serif;letter-spacing:0px;word-spacing:0px;fill:#000000;fill-opacity:1;stroke:none"
   transform="translate(-64.000047)"><flowRegion
     id="flowRegion856"><rect
       id="rect858"
       width="725.23181"
       height="58.184788"
       x="15.238873"
       y="124.11774" /></flowRegion><flowPara
     id="flowPara860" /></flowRoot><flowRoot
   xml:space="preserve"
   id="flowRoot862"
   style="font-style:normal;font-variant:normal;font-weight:500;font-stretch:normal;font-size:40px;line-height:1.25;font-family:'Bank Gothic';-inkscape-font-specification:'Bank Gothic, Medium';font-variant-ligatures:normal;font-variant-caps:normal;font-variant-numeric:normal;font-feature-settings:normal;text-align:start;letter-spacing:0px;word-spacing:0px;writing-mode:lr-tb;text-anchor:start;fill:#000000;fill-opacity:1;stroke:none"
   transform="translate(-64.000047)"><flowRegion
     id="flowRegion864"><rect
       id="rect866"
       width="727.30988"
       height="46.409294"
       x="23.550985"
       y="136.58592" /></flowRegion><flowPara
     id="flowPara868" /></flowRoot><flowRoot
   xml:space="preserve"
   id="flowRoot870"
   style="font-style:normal;font-variant:normal;font-weight:500;font-stretch:normal;font-size:40px;line-height:1.25;font-family:'Bank Gothic';-inkscape-font-specification:'Bank Gothic, Medium';font-variant-ligatures:normal;font-variant-caps:normal;font-variant-numeric:normal;font-feature-settings:normal;text-align:start;letter-spacing:0px;word-spacing:0px;writing-mode:lr-tb;text-anchor:start;fill:#000000;fill-opacity:1;stroke:none"
   transform="translate(-64.000047)"><flowRegion
     id="flowRegion872"><rect
       id="rect874"
       width="741.85608"
       height="65.111549"
       x="13.853521"
       y="121.34705" /></flowRegion><flowPara
     id="flowPara876" /></flowRoot><text
   xml:space="preserve"
   style="font-style:normal;font-variant:normal;font-weight:500;font-stretch:normal;font-size:40px;line-height:1.25;font-family:'Bank Gothic';-inkscape-font-specification:'Bank Gothic, Medium';font-variant-ligatures:normal;font-variant-caps:normal;font-variant-numeric:normal;font-feature-settings:normal;text-align:start;letter-spacing:0px;word-spacing:0px;writing-mode:lr-tb;text-anchor:start;fill:#000000;fill-opacity:1;stroke:none"
   x="-31.444273"
   y="174.68311"
   id="text880"><tspan
     sodipodi:role="line"
     id="tspan878"
     x="-31.444273"
     y="219.68311" /></text>

<text
   xml:space="preserve"
   style="font-style:normal;font-variant:normal;font-weight:500;font-stretch:normal;font-size:64px;line-height:1.25;font-family:'Bank Gothic';-inkscape-font-specification:'Bank Gothic, Medium';font-variant-ligatures:normal;font-variant-caps:normal;font-variant-numeric:normal;font-feature-settings:normal;text-align:start;letter-spacing:0px;word-spacing:0px;writing-mode:lr-tb;text-anchor:start;fill:#000000;fill-opacity:1;stroke:none"
   x="92.544739"
   y="162.21494"
   id="text884"><tspan
     sodipodi:role="line"
     id="tspan882"
     x="92.544739"
     y="234.21494" /></text>

<text
   xml:space="preserve"
   style="font-style:normal;font-variant:normal;font-weight:500;font-stretch:normal;font-size:64px;line-height:1.25;font-family:'Bank Gothic';-inkscape-font-specification:'Bank Gothic, Medium';font-variant-ligatures:normal;font-variant-caps:normal;font-variant-numeric:normal;font-feature-settings:normal;text-align:start;letter-spacing:0px;word-spacing:0px;writing-mode:lr-tb;text-anchor:start;fill:#000000;fill-opacity:1;stroke:none"
   x="-41.141735"
   y="175.37576"
   id="text892"><tspan
     sodipodi:role="line"
     id="tspan890"
     x="-41.141735"
     y="247.37576" /></text>

<text
   xml:space="preserve"
   style="font-style:normal;font-variant:normal;font-weight:500;font-stretch:normal;font-size:74.66666412px;line-height:1.25;font-family:'Bank Gothic';-inkscape-font-specification:'Bank Gothic, Medium';font-variant-ligatures:normal;font-variant-caps:normal;font-variant-numeric:normal;font-feature-settings:normal;text-align:start;letter-spacing:0px;word-spacing:0px;writing-mode:lr-tb;text-anchor:start;fill:#000000;fill-opacity:1;stroke:none"
   x="-19.668779"
   y="171.21973"
   id="text896"><tspan
     sodipodi:role="line"
     id="tspan894"
     x="-19.668779"
     y="255.21973" /></text>

<g
   aria-label="ALEX HEYMAN"
   transform="translate(12.310437,-67.681638)"
   style="font-style:normal;font-variant:normal;font-weight:500;font-stretch:normal;font-size:74.66666412px;line-height:1.25;font-family:'Bank Gothic';-inkscape-font-specification:'Bank Gothic, Medium';font-variant-ligatures:normal;font-variant-caps:normal;font-variant-numeric:normal;font-feature-settings:normal;text-align:start;letter-spacing:0px;word-spacing:0px;writing-mode:lr-tb;text-anchor:start;fill:#ffffff;fill-opacity:1;stroke:#000000;stroke-width:1;stroke-miterlimit:4;stroke-dasharray:none;stroke-opacity:1"
   id="flowRoot898"><path
     d="m 8.0050155,183.18164 h 8.9599995 l 4.48,-8.43734 h 24.415999 l 4.629333,8.43734 h 10.08 l -22.101332,-38.528 h -8.661334 z m 17.2479995,-15.38134 8.586666,-15.67999 8.288,15.67999 z"
     id="path841"
     inkscape:connector-curvature="0" /><path
     d="m 73.001179,183.18164 h 37.856001 v -7.24267 H 81.961179 v -31.28533 h -8.96 z"
     id="path843"
     inkscape:connector-curvature="0" /><path
     d="m 124.04284,183.18164 h 39.79734 v -7.24267 h -30.83734 v -9.55733 h 17.77067 v -6.57067 h -17.77067 v -8.58666 h 30.464 v -6.57067 h -39.424 z"
     id="path845"
     inkscape:connector-curvature="0" /><path
     d="m 174.58168,183.18164 h 10.60266 l 12.992,-14.93334 14.112,14.93334 h 12.17067 l -20.75733,-20.832 16.8,-17.696 h -10.304 l -11.72267,13.06667 -12.32,-13.06667 h -11.872 l 18.592,18.74133 z"
     id="path847"
     inkscape:connector-curvature="0" /><path
     d="m 263.022,183.18164 h 8.96 v -16.576 h 28 v 16.576 h 9.03467 v -38.528 H 299.982 v 14.93333 h -28 v -14.93333 h -8.96 z"
     id="path849"
     inkscape:connector-curvature="0" /><path
     d="m 328.79283,183.18164 h 39.79733 v -7.24267 h -30.83733 v -9.55733 h 17.77066 v -6.57067 h -17.77066 v -8.58666 h 30.464 v -6.57067 h -39.424 z"
     id="path851"
     inkscape:connector-curvature="0" /><path
     d="m 395.98233,183.18164 h 9.03466 v -17.472 l 19.936,-21.056 h -10.528 l -13.29066,14.784 -13.216,-14.784 h -11.94667 l 20.01067,21.28 z"
     id="path853"
     inkscape:connector-curvature="0" /><path
     d="m 435.32232,183.18164 h 7.24266 v -23.81867 q 0,-1.792 -0.224,-4.10666 0.448,1.12 1.04534,2.09066 0.59733,0.97067 1.26933,1.86667 l 14.48533,19.33866 h 1.792 l 14.48534,-19.26399 q 0.52266,-0.672 1.04533,-1.71734 0.59733,-1.04533 1.19467,-2.31466 -0.14934,1.49333 -0.224,2.53866 -0.0747,0.97067 -0.0747,1.568 v 23.81867 h 8.288 v -38.528 h -7.168 l -17.77067,23.296 -18.144,-23.296 h -7.24266 z"
     id="path855"
     inkscape:connector-curvature="0" /><path
     d="m 497.12999,183.18164 h 8.95999 l 4.48,-8.43734 h 24.416 l 4.62934,8.43734 h 10.08 l -22.10134,-38.528 h -8.66133 z m 17.24799,-15.38134 8.58667,-15.67999 8.288,15.67999 z"
     id="path857"
     inkscape:connector-curvature="0" /><path
     d="m 562.05147,183.18164 h 8.064 v -20.832 q 0,-0.82133 -0.0747,-2.31467 -0.0747,-1.568 -0.29867,-3.808 0.82133,0.896 1.568,1.64267 0.82133,0.74667 1.64267,1.49333 l 28.29866,23.81867 h 6.12267 v -38.528 h -8.064 v 20.23467 q 0,0.896 0.0747,2.61333 0.14933,1.64266 0.29866,4.032 -1.04533,-1.19467 -2.16533,-2.16534 -1.04533,-1.04533 -2.24,-2.016 l -27.104,-22.69866 h -6.12267 z"
     id="path859"
     inkscape:connector-curvature="0" /></g></svg>