<?xml version="1.0" encoding="UTF-8" standalone="no"?>
<!-- Generator: Adobe Illustrator 19.1.0, SVG Export Plug-In . SVG Version: 6.00 Build 0)  -->

<svg
   xmlns:dc="http://purl.org/dc/elements/1.1/"
   xmlns:cc="http://creativecommons.org/ns#"
   xmlns:rdf="http://www.w3.org/1999/02/22-rdf-syntax-ns#"
   xmlns:svg="http://www.w3.org/2000/svg"
   xmlns="http://www.w3.org/2000/svg"
   xmlns:sodipodi="http://sodipodi.sourceforge.net/DTD/sodipodi-0.dtd"
   xmlns:inkscape="http://www.inkscape.org/namespaces/inkscape"
   version="1.1"
   id="Layer_1"
   x="0px"
   y="0px"
   viewBox="0 0 768 192"
   style="enable-background:new 0 0 768 192;"
   xml:space="preserve"
   sodipodi:docname="logo.svg"
   inkscape:version="0.92.3 (2405546, 2018-03-11)"><metadata
   id="metadata115"><rdf:RDF><cc:Work
       rdf:about=""><dc:format>image/svg+xml</dc:format><dc:type
         rdf:resource="http://purl.org/dc/dcmitype/StillImage" /></cc:Work></rdf:RDF></metadata><defs
   id="defs113">
	
	
	
	
	
	
	

	

		
		
		
		
		
		
		
		
		
		
	
			
			
		
			
			
		
			
			
		
			
			
		
			
			
		
			
			
		
			
			
		
			
			
		
			
			
		
			
			
		</defs><sodipodi:namedview
   pagecolor="#ffffff"
   bordercolor="#666666"
   borderopacity="1"
   objecttolerance="10"
   gridtolerance="10"
   guidetolerance="10"
   inkscape:pageopacity="0"
   inkscape:pageshadow="2"
   inkscape:window-width="1920"
   inkscape:window-height="986"
   id="namedview111"
   showgrid="false"
   inkscape:zoom="2.0416666"
   inkscape:cx="351.80016"
   inkscape:cy="77.69856"
   inkscape:window-x="-11"
   inkscape:window-y="-11"
   inkscape:window-maximized="1"
   inkscape:current-layer="Layer_1"
   inkscape:snap-text-baseline="true" />
<style
   type="text/css"
   id="style2">
	.st0{fill:#800080;}
	.st1{fill:none;stroke:#1A1818;stroke-miterlimit:10;}
	.st2{fill:#C000C0;}
	.st3{fill:#FFFFFF;stroke:#1A1818;stroke-miterlimit:10;}
</style>




<path
   style="fill:#008060;fill-opacity:1;stroke:#006048;stroke-width:0.99999994;stroke-linecap:round;stroke-linejoin:round;stroke-miterlimit:4;stroke-dasharray:none;stroke-opacity:1"
   d="m 378.6,14.5 5,0.999836 -12,59.000168 h -5 z"
   id="path4799"
   inkscape:connector-curvature="0"
   sodipodi:nodetypes="ccccc" /><path
   style="fill:#008060;fill-opacity:1;stroke:#006048;stroke-width:0.99999994;stroke-linecap:round;stroke-linejoin:round;stroke-miterlimit:4;stroke-dasharray:none;stroke-opacity:1"
   d="m 389.59985,15.499836 5.00015,-0.999987 12,60.000005 h -5.00015 z"
   id="path4801"
   inkscape:connector-curvature="0"
   sodipodi:nodetypes="ccccc" /><path
   style="fill:#008060;fill-opacity:1;stroke:#006048;stroke-width:0.99999994;stroke-linecap:round;stroke-linejoin:round;stroke-miterlimit:4;stroke-dasharray:none;stroke-opacity:1"
   d="m 358.6,114.49983 h 4.99999 l -12,58.99997 -4.99999,1.00003 z"
   id="path4803"
   inkscape:connector-curvature="0"
   sodipodi:nodetypes="ccccc" /><path
   style="fill:#008060;fill-opacity:1;stroke:#006048;stroke-width:0.99999994;stroke-linecap:round;stroke-linejoin:round;stroke-miterlimit:4;stroke-dasharray:none;stroke-opacity:1"
   d="M 409.59981,114.49983 H 414.6 l 12.00002,60 -5.0002,-1.00003 z"
   id="path4805"
   inkscape:connector-curvature="0"
   sodipodi:nodetypes="ccccc" /><path
   style="fill:#00c090;fill-opacity:1;stroke:#006048;stroke-width:1;stroke-linecap:round;stroke-linejoin:round;stroke-miterlimit:4;stroke-dasharray:none;stroke-opacity:1"
   d="m 306.6,174.49984 h 40 l 12,-60 h 56 l 12.00002,60 h 39.99999 L 434.59999,14.49985 H 394.6 l 12,60 -40,1.5e-4 12,-60 h -40 z"
   id="path881-1"
   inkscape:connector-curvature="0"
   sodipodi:nodetypes="ccccccccccccc" /><g
   id="Name"
   style="stroke:#000000;stroke-opacity:1;fill:#ffffff;fill-opacity:1">
	<path
   class="st3"
   d="M22,111l21-36.5h8.3L72.6,111h-9.7l-4.5-8H34.9l-4.3,8H22z M38.6,96.4h16.3l-8-14.9L38.6,96.4z"
   id="path85"
   style="stroke:#000000;stroke-opacity:1;fill:#ffffff;fill-opacity:1" />
	<path
   class="st3"
   d="M84.5,111V74.4h5.9l26.1,21.5c1.9,1.6,3.3,2.9,4.2,4c-0.2-3.4-0.4-5.5-0.4-6.3V74.4h7.8V111h-5.9L95,88.4   c-1.2-0.9-2.2-1.9-3.1-3c0.2,2.4,0.4,4.3,0.4,5.8V111H84.5z"
   id="path87"
   style="stroke:#000000;stroke-opacity:1;fill:#ffffff;fill-opacity:1" />
	<path
   class="st3"
   d="M147.1,111V74.4H171c6.9,0,12.1,1.6,15.8,4.7c3.6,3.2,5.5,7.6,5.5,13.3c0,3.6-0.8,6.9-2.5,9.9   c-1.8,3.1-4.4,5.4-7.6,6.7c-3,1.2-7.4,1.8-13.3,1.8H147.1z M155.7,104.1h11.1c5.7,0,9.8-0.8,12.3-2.5c2.7-1.8,4.1-4.9,4.1-9.3   c0-7.6-4.1-11.4-12.2-11.4h-15.3V104.1z"
   id="path89"
   style="stroke:#000000;stroke-opacity:1;fill:#ffffff;fill-opacity:1" />
	<path
   class="st3"
   d="M208,111V74.4h31.8c5.6,0,8.3,2.4,8.3,7.1v8.6c0,4.7-2.8,7.1-8.3,7.1h-4.9L252,111h-12.4l-15-13.8h-8.2V111   H208z M235.9,80.6h-19.4v10.3h19.4c1.3,0,2.3-0.1,2.8-0.4c0.7-0.4,1.1-1.3,1.1-2.5v-4.4c0-1.2-0.4-2.1-1.1-2.5   C238.2,80.8,237.2,80.6,235.9,80.6z"
   id="path91"
   style="stroke:#000000;stroke-opacity:1;fill:#ffffff;fill-opacity:1" />
	<path
   class="st3"
   d="M265.7,111V74.4h38v6.2h-29.3v8.1h17.1V95h-17.1v9.1H304v6.9H265.7z"
   id="path93"
   style="stroke:#000000;stroke-opacity:1;fill:#ffffff;fill-opacity:1" />
	<path
   class="st3"
   d="M327.6,111l-14.3-36.5h8.9l9.4,24.5l9.9-24.5h6l10.1,24.5l9-24.5h7.7L360,111h-5.8l-10.2-25.3L333.6,111H327.6   z"
   id="path95"
   style="stroke:#000000;stroke-opacity:1;fill:#ffffff;fill-opacity:1" />
	<path
   class="st3"
   d="M414.4,111V74.4h8.6v14.2h27V74.4h8.7V111H450V95.2h-27V111H414.4z"
   id="path97"
   style="stroke:#000000;stroke-opacity:1;fill:#ffffff;fill-opacity:1" />
	<path
   class="st3"
   d="M477.7,111V74.4h38v6.2h-29.3v8.1h17.1V95h-17.1v9.1h29.7v6.9H477.7z"
   id="path99"
   style="stroke:#000000;stroke-opacity:1;fill:#ffffff;fill-opacity:1" />
	<path
   class="st3"
   d="M542.4,111V94.6l-19.3-20.2h11.5l12.7,14l12.8-14h10.1l-19.2,20V111H542.4z"
   id="path101"
   style="stroke:#000000;stroke-opacity:1;fill:#ffffff;fill-opacity:1" />
	<path
   class="st3"
   d="M580.3,111V74.4h7l17.5,22.1l17.1-22.1h6.9V111h-8V88.4c0-0.9,0.1-2.2,0.3-3.9c-0.9,1.8-1.6,3.1-2.2,3.8   l-14,18.3h-1.7l-14-18.3c-1-1.3-1.8-2.6-2.2-3.8c0.1,1.5,0.2,2.8,0.2,3.9V111H580.3z"
   id="path103"
   style="stroke:#000000;stroke-opacity:1;fill:#ffffff;fill-opacity:1" />
	<path
   class="st3"
   d="M639.8,111l21-36.5h8.3l21.3,36.5h-9.7l-4.5-8h-23.5l-4.3,8H639.8z M656.5,96.4h16.3l-8-14.9L656.5,96.4z"
   id="path105"
   style="stroke:#000000;stroke-opacity:1;fill:#ffffff;fill-opacity:1" />
	<path
   class="st3"
   d="M702.3,111V74.4h5.9l26.1,21.5c1.9,1.6,3.3,2.9,4.2,4c-0.2-3.4-0.4-5.5-0.4-6.3V74.4h7.8V111h-5.9l-27.3-22.6   c-1.2-0.9-2.2-1.9-3.1-3c0.2,2.4,0.4,4.3,0.4,5.8V111H702.3z"
   id="path107"
   style="stroke:#000000;stroke-opacity:1;fill:#ffffff;fill-opacity:1" />
</g></svg>