<?xml version="1.0" encoding="utf-8"?>
<!-- Generator: Adobe Illustrator 19.1.0, SVG Export Plug-In . SVG Version: 6.00 Build 0)  -->
<svg version="1.1" id="Layer_1" xmlns="http://www.w3.org/2000/svg" xmlns:xlink="http://www.w3.org/1999/xlink" x="0px" y="0px"
	 viewBox="0 0 768 192" style="enable-background:new 0 0 768 192;" xml:space="preserve">
<style type="text/css">
	.st0{fill:#800080;}
	.st1{fill:none;stroke:#1A1818;stroke-miterlimit:10;}
	.st2{fill:#C000C0;}
	.st3{fill:#FFFFFF;stroke:#1A1818;stroke-miterlimit:10;}
</style>
<g id="HMiddle">
	<g>
		<g>
			<path class="st0" d="M369.6,15c0-0.6,0.3-0.7,0.7-0.3l2.6,2.6c0.4,0.4,0.7,1.2,0.7,1.7v58c0,0.6-0.4,1-1,1h-2c-0.5,0-1-0.4-1-1
				V15z"/>
			<path class="st1" d="M369.6,15c0-0.6,0.3-0.7,0.7-0.3l2.6,2.6c0.4,0.4,0.7,1.2,0.7,1.7v58c0,0.6-0.4,1-1,1h-2c-0.5,0-1-0.4-1-1
				V15z"/>
		</g>
		<g>
			<path class="st0" d="M306.6,46c-0.5,0-0.7,0.3-0.3,0.7l2.6,2.6c0.4,0.4,1.2,0.7,1.7,0.7h26c0.6,0,1-0.5,1-1v-2c0-0.5-0.4-1-1-1
				H306.6z"/>
			<path class="st1" d="M306.6,46c-0.5,0-0.7,0.3-0.3,0.7l2.6,2.6c0.4,0.4,1.2,0.7,1.7,0.7h26c0.6,0,1-0.5,1-1v-2c0-0.5-0.4-1-1-1
				H306.6z"/>
		</g>
		<g>
			<path class="st0" d="M306.3,174.7c-0.4-0.4-0.3-0.7,0.3-0.7h62c0.6,0,1.3,0.3,1.7,0.7l2.6,2.6c0.4,0.4,0.3,0.7-0.3,0.7h-62
				c-0.5,0-1.3-0.3-1.7-0.7L306.3,174.7z"/>
			<path class="st1" d="M306.3,174.7c-0.4-0.4-0.3-0.7,0.3-0.7h62c0.6,0,1.3,0.3,1.7,0.7l2.6,2.6c0.4,0.4,0.3,0.7-0.3,0.7h-62
				c-0.5,0-1.3-0.3-1.7-0.7L306.3,174.7z"/>
		</g>
		<g>
			<path class="st0" d="M369.6,111c0-0.6,0.3-0.7,0.7-0.3l2.6,2.6c0.4,0.4,0.7,1.2,0.7,1.7v62c0,0.6-0.3,0.7-0.7,0.3l-2.6-2.6
				c-0.4-0.4-0.7-1.2-0.7-1.7V111z"/>
			<path class="st1" d="M369.6,111c0-0.6,0.3-0.7,0.7-0.3l2.6,2.6c0.4,0.4,0.7,1.2,0.7,1.7v62c0,0.6-0.3,0.7-0.7,0.3l-2.6-2.6
				c-0.4-0.4-0.7-1.2-0.7-1.7V111z"/>
		</g>
		<g>
			<path class="st0" d="M402.3,174.7c-0.4-0.4-0.3-0.7,0.3-0.7h62c0.6,0,1.3,0.3,1.7,0.7l2.6,2.6c0.4,0.4,0.3,0.7-0.3,0.7h-62
				c-0.5,0-1.3-0.3-1.7-0.7L402.3,174.7z"/>
			<path class="st1" d="M402.3,174.7c-0.4-0.4-0.3-0.7,0.3-0.7h62c0.6,0,1.3,0.3,1.7,0.7l2.6,2.6c0.4,0.4,0.3,0.7-0.3,0.7h-62
				c-0.5,0-1.3-0.3-1.7-0.7L402.3,174.7z"/>
		</g>
		<g>
			<path class="st0" d="M465.6,143c0-0.6,0.3-0.7,0.7-0.3l2.6,2.6c0.4,0.4,0.7,1.2,0.7,1.7v30c0,0.6-0.3,0.7-0.7,0.3l-2.6-2.6
				c-0.4-0.4-0.7-1.2-0.7-1.7V143z"/>
			<path class="st1" d="M465.6,143c0-0.6,0.3-0.7,0.7-0.3l2.6,2.6c0.4,0.4,0.7,1.2,0.7,1.7v30c0,0.6-0.3,0.7-0.7,0.3l-2.6-2.6
				c-0.4-0.4-0.7-1.2-0.7-1.7V143z"/>
		</g>
		<g>
			<path class="st0" d="M433.6,47c0-0.5,0.3-0.7,0.7-0.3l2.6,2.6c0.4,0.4,0.7,1.2,0.7,1.7v90c0,0.6-0.4,1-1,1h-2c-0.5,0-1-0.4-1-1
				V47z"/>
			<path class="st1" d="M433.6,47c0-0.5,0.3-0.7,0.7-0.3l2.6,2.6c0.4,0.4,0.7,1.2,0.7,1.7v90c0,0.6-0.4,1-1,1h-2c-0.5,0-1-0.4-1-1
				V47z"/>
		</g>
		<g>
			<path class="st0" d="M464.6,46c0.6,0,1.3,0.3,1.7,0.7l2.6,2.6c0.4,0.4,0.3,0.7-0.3,0.7h-30c-0.5,0-1.3-0.3-1.7-0.7l-2.6-2.6
				c-0.4-0.4-0.3-0.7,0.3-0.7H464.6z"/>
			<path class="st1" d="M464.6,46c0.6,0,1.3,0.3,1.7,0.7l2.6,2.6c0.4,0.4,0.3,0.7-0.3,0.7h-30c-0.5,0-1.3-0.3-1.7-0.7l-2.6-2.6
				c-0.4-0.4-0.3-0.7,0.3-0.7H464.6z"/>
		</g>
		<g>
			<path class="st0" d="M465.6,15c0-0.6,0.3-0.7,0.7-0.3l2.6,2.6c0.4,0.4,0.7,1.2,0.7,1.7v30c0,0.5-0.3,0.7-0.7,0.3l-2.6-2.6
				c-0.4-0.4-0.7-1.2-0.7-1.7V15z"/>
			<path class="st1" d="M465.6,15c0-0.6,0.3-0.7,0.7-0.3l2.6,2.6c0.4,0.4,0.7,1.2,0.7,1.7v30c0,0.5-0.3,0.7-0.7,0.3l-2.6-2.6
				c-0.4-0.4-0.7-1.2-0.7-1.7V15z"/>
		</g>
		<g>
			<path class="st0" d="M372.9,113.3c0.4,0.4,1.2,0.7,1.7,0.7h26c0.6,0,1-0.4,1-1v-2c0-0.6-0.4-1-1-1h-30c-0.5,0-0.7,0.3-0.3,0.7
				L372.9,113.3z"/>
			<path class="st1" d="M372.9,113.3c0.4,0.4,1.2,0.7,1.7,0.7h26c0.6,0,1-0.4,1-1v-2c0-0.6-0.4-1-1-1h-30c-0.5,0-0.7,0.3-0.3,0.7
				L372.9,113.3z"/>
		</g>
	</g>
</g>
<g id="HFront">
	<rect x="305.6" y="14" class="st2" width="64" height="32"/>
	<rect x="337.6" y="45" class="st2" width="32" height="98"/>
	<rect x="305.6" y="142" class="st2" width="64" height="32"/>
	<rect x="368.6" y="78" class="st2" width="34" height="32"/>
	<rect x="401.6" y="45" class="st2" width="32" height="98"/>
	<rect x="401.6" y="14" class="st2" width="64" height="32"/>
	<rect x="401.6" y="142" class="st2" width="64" height="32"/>
</g>
<g id="HOutlineFront">
	<path class="st1" d="M401.6,111c0-0.5-0.5-1-1-1h-30c-0.5,0-1,0.5-1,1v62c0,0.5-0.5,1-1,1h-62c-0.5,0-1-0.5-1-1v-30
		c0-0.5,0.5-1,1-1h30c0.5,0,1-0.5,1-1V47c0-0.5-0.5-1-1-1h-30c-0.5,0-1-0.5-1-1V15c0-0.5,0.5-1,1-1h62c0.5,0,1,0.5,1,1v62
		c0,0.5,0.5,1,1,1h30c0.5,0,1-0.5,1-1V15c0-0.5,0.5-1,1-1h62c0.5,0,1,0.5,1,1v30c0,0.5-0.5,1-1,1h-30c-0.5,0-1,0.5-1,1v94
		c0,0.5,0.5,1,1,1h30c0.5,0,1,0.5,1,1v30c0,0.5-0.5,1-1,1h-62c-0.5,0-1-0.5-1-1V111z"/>
</g>
<g id="Name">
	<path class="st3" d="M22,111l21-36.5h8.3L72.6,111h-9.7l-4.5-8H34.9l-4.3,8H22z M38.6,96.4h16.3l-8-14.9L38.6,96.4z"/>
	<path class="st3" d="M84.5,111V74.4h5.9l26.1,21.5c1.9,1.6,3.3,2.9,4.2,4c-0.2-3.4-0.4-5.5-0.4-6.3V74.4h7.8V111h-5.9L95,88.4
		c-1.2-0.9-2.2-1.9-3.1-3c0.2,2.4,0.4,4.3,0.4,5.8V111H84.5z"/>
	<path class="st3" d="M147.1,111V74.4H171c6.9,0,12.1,1.6,15.8,4.7c3.6,3.2,5.5,7.6,5.5,13.3c0,3.6-0.8,6.9-2.5,9.9
		c-1.8,3.1-4.4,5.4-7.6,6.7c-3,1.2-7.4,1.8-13.3,1.8H147.1z M155.7,104.1h11.1c5.7,0,9.8-0.8,12.3-2.5c2.7-1.8,4.1-4.9,4.1-9.3
		c0-7.6-4.1-11.4-12.2-11.4h-15.3V104.1z"/>
	<path class="st3" d="M208,111V74.4h31.8c5.6,0,8.3,2.4,8.3,7.1v8.6c0,4.7-2.8,7.1-8.3,7.1h-4.9L252,111h-12.4l-15-13.8h-8.2V111
		H208z M235.9,80.6h-19.4v10.3h19.4c1.3,0,2.3-0.1,2.8-0.4c0.7-0.4,1.1-1.3,1.1-2.5v-4.4c0-1.2-0.4-2.1-1.1-2.5
		C238.2,80.8,237.2,80.6,235.9,80.6z"/>
	<path class="st3" d="M265.7,111V74.4h38v6.2h-29.3v8.1h17.1V95h-17.1v9.1H304v6.9H265.7z"/>
	<path class="st3" d="M327.6,111l-14.3-36.5h8.9l9.4,24.5l9.9-24.5h6l10.1,24.5l9-24.5h7.7L360,111h-5.8l-10.2-25.3L333.6,111H327.6
		z"/>
	<path class="st3" d="M414.4,111V74.4h8.6v14.2h27V74.4h8.7V111H450V95.2h-27V111H414.4z"/>
	<path class="st3" d="M477.7,111V74.4h38v6.2h-29.3v8.1h17.1V95h-17.1v9.1h29.7v6.9H477.7z"/>
	<path class="st3" d="M542.4,111V94.6l-19.3-20.2h11.5l12.7,14l12.8-14h10.1l-19.2,20V111H542.4z"/>
	<path class="st3" d="M580.3,111V74.4h7l17.5,22.1l17.1-22.1h6.9V111h-8V88.4c0-0.9,0.1-2.2,0.3-3.9c-0.9,1.8-1.6,3.1-2.2,3.8
		l-14,18.3h-1.7l-14-18.3c-1-1.3-1.8-2.6-2.2-3.8c0.1,1.5,0.2,2.8,0.2,3.9V111H580.3z"/>
	<path class="st3" d="M639.8,111l21-36.5h8.3l21.3,36.5h-9.7l-4.5-8h-23.5l-4.3,8H639.8z M656.5,96.4h16.3l-8-14.9L656.5,96.4z"/>
	<path class="st3" d="M702.3,111V74.4h5.9l26.1,21.5c1.9,1.6,3.3,2.9,4.2,4c-0.2-3.4-0.4-5.5-0.4-6.3V74.4h7.8V111h-5.9l-27.3-22.6
		c-1.2-0.9-2.2-1.9-3.1-3c0.2,2.4,0.4,4.3,0.4,5.8V111H702.3z"/>
</g>
</svg>
